<svg width="81" height="32" viewBox="0 0 81 32" fill="none" xmlns="http://www.w3.org/2000/svg">
<path d="M36.9081 11.9578C36.4995 11.9578 36.0917 11.6493 35.6846 11.0323C35.4173 10.6047 35.284 10.2801 35.2848 10.0586C35.2848 9.6775 35.5312 9.32618 36.0258 9.00162C36.5035 8.68192 37.0646 8.51249 37.6378 8.51477H47.263C47.8745 8.51477 48.1805 8.79957 48.1809 9.36916C48.186 10.0016 48.0058 10.6214 47.6628 11.1507C47.3173 11.6885 46.9409 11.9575 46.5337 11.9578H43.4035V22.6926C43.4084 23.3246 43.2283 23.944 42.8859 24.4733C42.5408 25.0128 42.1643 25.2822 41.7563 25.2816C41.3477 25.2816 40.9398 24.9727 40.5324 24.3549C40.2656 23.9272 40.1323 23.6027 40.1326 23.3812V11.9578H36.9081Z" fill="white"/>
<path d="M48.9343 20.317C49.0876 21.0314 49.4881 21.6674 50.0639 22.1108C50.666 22.5689 51.4042 22.8071 52.1579 22.7867C52.849 22.7867 53.6726 22.5494 54.6287 22.0749C55.0057 21.8694 55.4249 21.7556 55.8531 21.7424C56.3551 21.7424 56.6061 21.972 56.6063 22.431C56.6064 22.8422 56.5138 23.2481 56.3355 23.6179C56.19 23.9577 55.9486 24.2467 55.6414 24.449C55.0887 24.7905 54.4904 25.0504 53.8647 25.2209C53.2327 25.4002 52.5797 25.4923 51.9232 25.4946C50.8266 25.5043 49.751 25.1904 48.8287 24.5916C47.9184 24.0155 47.1689 23.2145 46.651 22.2644C46.1387 21.3349 45.8713 20.2884 45.8744 19.2249C45.8593 18.0791 46.1522 16.9506 46.7219 15.9594C47.2493 15.0235 48.0126 14.245 48.9343 13.7028C49.8422 13.1727 50.8743 12.8978 51.9232 12.9068C52.918 12.8921 53.898 13.1508 54.7583 13.655C55.5714 14.1273 56.2426 14.813 56.7006 15.6392C57.1565 16.4664 57.3917 17.399 57.3829 18.3455C57.3893 18.8295 57.2542 19.3048 56.9944 19.7117C56.7358 20.1152 56.4495 20.317 56.1356 20.317H48.9343ZM51.8528 15.5199C51.1534 15.5015 50.47 15.7326 49.9227 16.1725C49.3887 16.6094 49.0361 17.2322 48.9343 17.9183H54.4884C54.478 17.5932 54.4016 17.2737 54.2638 16.9796C54.1261 16.6855 53.9301 16.423 53.6878 16.2084C53.1866 15.7494 52.5294 15.5029 51.8528 15.5199Z" fill="white"/>
<path d="M61.7362 25.2809C61.0299 25.2809 60.4181 24.9998 59.9007 24.4375C59.3944 23.9049 59.1155 23.1931 59.1241 22.4551V9.84349C59.1241 9.49568 59.3634 9.16308 59.8421 8.84568C60.2975 8.5365 60.8339 8.37143 61.3828 8.37156C61.9639 8.37156 62.2544 8.64057 62.2542 9.17858V21.4331C62.2468 21.6126 62.2919 21.7903 62.3838 21.9441C62.4998 22.1018 62.6592 22.2216 62.8423 22.2884C63.0931 22.3993 63.2187 22.6208 63.2191 22.9529C63.2237 23.5226 63.0598 24.0807 62.7484 24.5559C62.4337 25.0397 62.0963 25.2814 61.7362 25.2809Z" fill="white"/>
<path d="M66.4897 11.601C66.082 11.601 65.6585 11.2764 65.2192 10.6273C64.9206 10.1681 64.7716 9.81179 64.772 9.55843C64.772 9.16326 65.0386 8.79118 65.5717 8.4422C66.0814 8.10144 66.6793 7.91976 67.2907 7.91984C67.9491 7.91984 68.2786 8.22071 68.279 8.82246C68.2801 9.29117 68.1879 9.75532 68.0078 10.1874C67.858 10.5781 67.6251 10.9308 67.3254 11.2207C67.0503 11.4747 66.7717 11.6014 66.4897 11.601ZM66.4897 25.2809C66.1289 25.2809 65.7367 24.9801 65.3131 24.3783C65.0619 23.9665 64.9364 23.6577 64.9367 23.452V14.5931C64.9367 14.2458 65.1759 13.9133 65.6543 13.5958C66.11 13.2866 66.6468 13.1215 67.1959 13.1216C67.7762 13.1216 68.0663 13.3906 68.0665 13.9287V22.7867C68.067 23.211 67.983 23.6312 67.8196 24.0222C67.6853 24.3723 67.4765 24.6885 67.2081 24.9485C66.9647 25.17 66.7252 25.2808 66.4897 25.2809Z" fill="white"/>
<path d="M75.6452 25.2817C74.5619 25.2949 73.497 24.9984 72.5737 24.4265C71.6777 23.8798 70.9393 23.1059 70.4319 22.1817C69.9219 21.2563 69.6583 20.2134 69.6667 19.1545C69.6553 18.0248 69.9568 16.9143 70.5375 15.9483C71.0851 15.0148 71.8639 14.2412 72.7975 13.7036C73.7067 13.1773 74.7375 12.9027 75.7856 12.9075C76.7238 12.9157 77.6426 13.1785 78.4455 13.6685C78.9287 13.3256 79.5021 13.1356 80.0927 13.1224C80.6729 13.1224 80.9629 13.3914 80.9628 13.9294V22.7874C80.9636 23.2118 80.8798 23.632 80.7164 24.023C80.5821 24.3732 80.3732 24.6894 80.1044 24.9493C79.861 25.1708 79.6217 25.2816 79.3864 25.2817C79.0257 25.2817 78.6337 24.9808 78.2103 24.3791C78.0753 24.1712 77.9646 23.9482 77.8805 23.7146C77.7657 24.043 77.5943 24.3483 77.3741 24.6164C77.201 24.8424 76.9687 25.0151 76.7035 25.1151C76.3619 25.2278 76.0046 25.2841 75.6452 25.2817ZM75.856 22.3366C76.5584 22.3375 77.2458 22.1313 77.8335 21.7431V16.3517C77.237 16.0152 76.5632 15.843 75.8799 15.8527C75.4633 15.8421 75.049 15.9177 74.6625 16.075C74.2761 16.2323 73.9257 16.4678 73.6329 16.767C73.0288 17.3769 72.7267 18.1409 72.7267 19.0589C72.7166 19.4882 72.7916 19.9151 72.9472 20.3147C73.1028 20.7144 73.336 21.0786 73.6329 21.3861C73.9165 21.6932 74.2611 21.9365 74.6441 22.1003C75.0272 22.264 75.4401 22.3445 75.856 22.3366Z" fill="white"/>
<path d="M18.3063 18.5013C10.4968 22.2879 4.45009 23.3311 1.77128 20.5164C2.7242 22.4014 3.88906 24.1694 5.24284 25.7855C8.5036 28.5859 14.0772 27.5252 20.8658 23.5508C24.8831 21.1993 27.8943 18.1335 29.2673 14.9907C29.8217 12.623 30.1006 10.1981 30.0983 7.76515C30.0983 7.45484 30.0863 7.15549 30.0623 6.86711C29.6363 10.6829 24.7062 15.3984 18.3063 18.5013Z" fill="white"/>
<path d="M17.0711 15.2576C24.4447 11.6688 29.5976 6.57581 28.8057 3.162C27.2322 0.940945 24.4097 0.081841 21.3978 0.081841C11.8274 0.081841 0.0814476 6.44741 0.0814476 14.5689C0.0998562 15.5489 0.256666 16.5213 0.547142 17.4567C2.79415 20.2494 9.38414 18.9992 17.0711 15.2576" fill="white"/>
<path d="M16.7589 27.6224C11.7331 29.6794 8.88916 29.1292 7.20673 27.8985C9.67714 30.2737 12.437 31.9099 14.8724 31.9099C19.2943 31.9099 25.321 26.5875 28.2917 18.2952C26.617 21.3353 23.1477 25.0164 16.7589 27.6224Z" fill="white"/>
</svg>
